# xmcd
#
# Track frame offsets: 
#        150
#        18256
#        32622
#        52222
#        69497
#        88073
#        110398
#        125047
#        148548
#        163198
#
# Disc length: 2446 seconds
#
# Revision: 4
# Processed by: cddbd v1.5.2PL0 Copyright (c) Steve Scherf et al.
# Submitted via: ExactAudioCopyFreeDBPlugin 1.0
#
DISCID=8b098c0a
DTITLE=李宗盛 - 愛的代價 - 李宗盛愛情論
DYEAR=2004
DGENRE=Pop
TTITLE0=生命中的精靈
TTITLE1=寂寞難耐
TTITLE2=鬼迷心竅
TTITLE3=凡人歌
TTITLE4=希望
TTITLE5=遠行
TTITLE6=風櫃來的人
TTITLE7=小鎮醫生的故事
TTITLE8=油麻菜籽
TTITLE9=飛
EXTD=
EXTT0=
EXTT1=
EXTT2=
EXTT3=
EXTT4=
EXTT5=
EXTT6=
EXTT7=
EXTT8=
EXTT9=
PLAYORDER=
